<?xml version="1.0" encoding="UTF-8" standalone="no"?>
<!-- Created with Inkscape (http://www.inkscape.org/) -->

<svg
   version="1.1"
   id="svg71"
   width="240"
   height="320"
   viewBox="0 0 240 320"
   xmlns="http://www.w3.org/2000/svg"
   xmlns:svg="http://www.w3.org/2000/svg">
  <defs
     id="defs75">
    <clipPath
       clipPathUnits="userSpaceOnUse"
       id="clipPath854">
      <rect
         style="fill:#2b0000"
         id="rect856"
         width="236.98341"
         height="232.71875"
         x="3.5037422"
         y="43.515549" />
    </clipPath>
    <clipPath
       clipPathUnits="userSpaceOnUse"
       id="clipPath2017">
      <rect
         style="fill:#2b0000"
         id="rect2019"
         width="162.54994"
         height="40.782715"
         x="71.574043"
         y="230.05576" />
    </clipPath>
    <clipPath
       clipPathUnits="userSpaceOnUse"
       id="clipPath2021">
      <rect
         style="fill:#2b0000"
         id="rect2023"
         width="162.54994"
         height="40.782715"
         x="71.574043"
         y="230.05576" />
    </clipPath>
    <clipPath
       clipPathUnits="userSpaceOnUse"
       id="clipPath2025">
      <rect
         style="fill:#2b0000"
         id="rect2027"
         width="162.54994"
         height="40.782715"
         x="72.173386"
         y="227.25931"
          />
    </clipPath>
  </defs>
  <g
     id="g77">
    <rect
       style="fill:#2b0000"
       id="rect1933"
       width="102.78008"
       height="49.847095"
       x="76.365959"
       y="46.14259"
       clip-path="url(#clipPath2017)" />
  </g>
  <g
     id="layer2">
    <path
       style="fill:none;stroke:#000000;stroke-width:1px;stroke-linecap:butt;stroke-linejoin:miter;stroke-opacity:1"
       d="m 122.26904,103.32834 c -0.23643,0.51974 -0.38743,0.95377 -0.69073,1.49789 -0.30329,0.54412 -0.75949,1.20209 -1.08758,1.60557 -0.32809,0.40348 -0.53112,0.55575 -0.95703,1.0291 -0.4259,0.47335 -1.07218,1.26547 -1.39487,1.93711 -0.32269,0.67165 -0.32269,1.21393 -0.19683,1.72681 0.12585,0.51287 0.37146,0.99437 0.62123,1.40894 0.24978,0.41457 0.50166,0.76289 0.6235,1.01204 0.12185,0.24915 0.12185,0.40047 0.22776,0.60303 0.10592,0.20255 0.30895,0.45539 0.53489,0.87853 0.22595,0.42315 0.47847,1.01551 0.60216,1.35593 0.12369,0.34042 0.12369,0.43097 0.4315,0.80452 0.30782,0.37354 0.91387,1.02971 1.67432,1.53228 0.76045,0.50258 1.67283,0.85725 2.35734,1.16244 0.68452,0.30519 1.14133,0.55897 1.71678,0.73243 0.57546,0.17345 1.27026,0.2716 1.88825,0.52303 0.61799,0.25142 1.15911,0.64942 1.72917,0.89599 0.57006,0.24658 1.16897,0.34809 1.5686,0.44535 0.39963,0.0973 0.59931,0.18679 1.03699,0.22885 0.43769,0.0421 1.11545,0.0421 1.47282,0.0186 0.35738,-0.0235 0.40428,-0.0704 0.50697,-0.0939 0.10269,-0.0235 0.25111,-0.0235 0.53842,-0.24158 0.28731,-0.2181 0.72351,-0.6543 0.96622,-0.99482 0.24271,-0.34052 0.29347,-0.59303 0.42018,-0.8237 0.12672,-0.23066 0.32785,-0.43179 0.6536,-0.93072 0.32575,-0.49894 0.77797,-1.29895 1.05504,-1.96908 0.27707,-0.67013 0.37858,-1.21492 0.55398,-1.68864 0.17539,-0.47372 0.42488,-0.87118 0.55046,-1.31648 0.12558,-0.44531 0.12558,-0.9458 0.17551,-1.42574 0.0499,-0.47995 0.15145,-0.93677 0.20303,-2.02859 0.0516,-1.09182 0.0516,-2.82124 -0.0844,-3.82692 -0.13597,-1.00568 -0.41791,-1.28761 -0.58626,-1.47834 -0.16835,-0.19073 -0.2191,-0.29223 -0.29439,-0.41935 -0.0753,-0.12713 -0.17681,-0.2794 -0.35216,-0.48206 -0.17535,-0.20265 -0.42686,-0.45416 -0.80691,-0.93434 -0.38004,-0.48018 -0.88673,-1.19039 -1.21474,-1.59833 -0.32801,-0.40794 -0.48078,-0.50995 -0.80943,-0.81131 -0.32866,-0.30137 -0.83167,-0.80438 -1.33548,-1.19418 -0.50381,-0.3898 -1.01035,-0.66281 -1.45965,-0.942834 -0.44929,-0.280023 -0.84066,-0.568933 -1.06577,-0.717541 -0.22511,-0.148608 -0.2827,-0.148608 -0.26413,-0.128773 0.0186,0.01984 0.11127,0.05494 -0.25853,0.05288 -0.3698,-0.0021 -1.20044,-0.03717 -2.27379,-0.04496 -1.07336,-0.0078 -2.38888,0.01233 -3.32768,0.382173 -0.9388,0.369841 -1.48992,1.087783 -1.88486,1.526053 -0.39493,0.43827 -0.63709,0.59986 -0.75932,0.72637 -0.12223,0.12651 -0.12223,0.20647 -0.28409,0.54488 -0.16187,0.33841 -0.48366,0.94167 -0.7201,1.46141 z"
       id="path1674" />
    <path
       style="fill:none;stroke:#000000;stroke-width:1px;stroke-linecap:butt;stroke-linejoin:miter;stroke-opacity:1"
       d="m 127.70436,105.16383 c -0.67805,0.59273 -1.35681,1.18609 -1.712,1.54034 -0.35519,0.35424 -0.38426,0.46193 -0.52384,0.61308 -0.13958,0.15116 -0.39273,0.35355 -0.646,0.60558 -0.25328,0.25203 -0.50467,0.55177 -0.8166,0.86248 -0.31193,0.31071 -0.68599,0.63402 -1.06083,0.958"
       id="path1678" />
    <path
       style="fill:none;stroke:#000000;stroke-width:1px;stroke-linecap:butt;stroke-linejoin:miter;stroke-opacity:1"
       d="m 122.26904,103.32834 c 0.99915,1.17943 1.98918,2.3481 2.50617,3.03315 0.51698,0.68505 0.5671,0.88549 0.69659,1.1122 0.12949,0.22671 0.33251,0.48049 0.4513,0.67631 0.11879,0.19581 0.15866,0.33271 0.22186,0.39522 0.0632,0.0625 0.1432,0.0625 0.32775,0.16261 0.18455,0.10009 0.47211,0.29256 0.74815,0.47732"
       id="path1682" />
    <path
       style="fill:none;stroke:#000000;stroke-width:1px;stroke-linecap:butt;stroke-linejoin:miter;stroke-opacity:1"
       d="m 130.85996,106.31441 c 1.04233,0.88118 2.0739,1.75326 2.61007,2.25265 0.53617,0.49938 0.58312,0.6231 0.72065,0.80705 0.13753,0.18396 0.36072,0.42975 0.57441,0.66509"
       id="path1686" />
    <path
       style="fill:none;stroke:#000000;stroke-width:1px;stroke-linecap:butt;stroke-linejoin:miter;stroke-opacity:1"
       d="m 130.85996,106.31441 c 0.21457,0.50719 0.42403,1.00231 0.69874,1.0713 0.27471,0.069 0.61979,-0.27607 1.12829,-0.5 0.50849,-0.22392 1.17214,-0.32543 1.8275,-0.42568"
       id="path1690" />
    <path
       style="fill:none;stroke:#000000;stroke-width:1px;stroke-linecap:butt;stroke-linejoin:miter;stroke-opacity:1"
       d="m 127.34833,115.49286 c 1.05463,-0.24163 2.10193,-0.48158 3.17699,-0.60071 1.07505,-0.11914 2.17517,-0.11914 2.98179,0.22249 0.80663,0.34162 1.32124,1.01375 1.82732,1.67474"
       id="path1694"  />
  </g>
  <g
     id="layer3">
    <path
       style="fill:none;stroke:#000000;stroke-width:1px;stroke-linecap:butt;stroke-linejoin:miter;stroke-opacity:1"
       d="m 121.36081,163.24277 c 0.11097,-1.14666 0.22281,-2.30227 0.37608,-3.20507 0.15328,-0.90279 0.34906,-1.55022 0.47331,-1.90252 0.12426,-0.35231 0.17497,-0.40302 0.22561,-1.45178 0.0506,-1.04877 0.10139,-3.10528 0.12689,-4.63385 0.0255,-1.52857 0.0255,-2.52945 -0.025,-4.21671 -0.0505,-1.68726 -0.15205,-4.06133 -0.20303,-5.74805 -0.051,-1.68672 -0.051,-2.68569 -0.0268,-3.31055 0.0241,-0.62485 0.0739,-0.87328 0.22486,-1.32495 0.15092,-0.45167 0.40347,-1.10423 0.78286,-1.86117 0.37939,-0.75694 0.88536,-1.61599 1.31493,-2.57349 0.42958,-0.95751 0.78295,-2.01641 1.0834,-2.73794 0.30044,-0.72153 0.54754,-1.10215 0.69673,-1.49146 0.14919,-0.38931 0.19995,-0.79348 0.44895,-1.35997 0.249,-0.56648 0.69686,-1.28944 1.14643,-2.01515"
       id="path1699" visibility="hidden" />
  </g>
  <g
     id="layer4">
    <path
       style="fill:none;stroke:#000000;stroke-width:1px;stroke-linecap:butt;stroke-linejoin:miter;stroke-opacity:1"
       d="m 138.48751,159.88311 c 0,-0.5951 0,-1.2002 -0.0988,-1.7278 -0.0988,-0.5276 -0.30184,-0.97976 -0.67552,-1.37949 -0.37368,-0.39972 -0.92429,-0.74223 -1.18063,-1.42834 -0.25633,-0.68612 -0.20621,-1.71807 -0.18093,-2.52947 0.0253,-0.81141 0.0253,-1.40279 0.0757,-2.35335 0.0504,-0.95056 0.15192,-2.25948 0.20303,-3.16461 0.0511,-0.90512 0.0511,-1.40728 -0.0239,-2.50886 -0.075,-1.10159 -0.22601,-2.8034 -0.40148,-4.00843 -0.17547,-1.20503 -0.37786,-1.91436 -0.50532,-2.44638 -0.12746,-0.53202 -0.17822,-0.88604 -0.35517,-1.47073 -0.17695,-0.58469 -0.483,-1.40087 -0.68518,-1.88532 -0.20217,-0.48446 -0.30363,-0.63664 -0.43315,-1.08442 -0.12953,-0.44778 -0.28178,-1.19115 -0.50081,-1.75402 -0.21903,-0.56287 -0.51097,-0.94482 -0.68462,-1.22648 -0.17366,-0.28165 -0.22379,-0.46376 -0.58654,-0.90897 -0.36276,-0.44522 -1.0447,-1.15187 -1.57287,-1.71685 -0.52816,-0.56499 -0.90206,-0.98869 -1.114,-1.24455 -0.21195,-0.25586 -0.25891,-0.34532 -0.28552,-0.41445 -0.0266,-0.0691 -0.0266,-0.11603 -0.26248,-0.31498 -0.23587,-0.19895 -0.71895,-0.54814 -1.21333,-0.9055"
       id="path1704" />
  </g>
  <g
     id="layer5">
    <path
       style="fill:none;stroke:#000000;stroke-width:1px;stroke-linecap:butt;stroke-linejoin:miter;stroke-opacity:1"
       d="m 129.717,165.72407 c 0,-1.53262 0,-3.07524 0,-4.10002 0,-1.02477 0,-1.53171 -0.0249,-2.06121 -0.0249,-0.52951 -0.0756,-1.08239 -0.1264,-1.63769 -0.0508,-0.55529 -0.10152,-1.11298 -0.20059,-1.56613 -0.0991,-0.45314 -0.25072,-0.80299 -0.32915,-1.18198 -0.0784,-0.37899 -0.0784,-0.78504 -0.12535,-1.06343 -0.0469,-0.2784 -0.14842,-0.43067 -0.22799,-0.83474 -0.0796,-0.40407 -0.13032,-1.05912 -0.15612,-1.87297 -0.0258,-0.81385 -0.0258,-1.78581 -0.0258,-3.04289 0,-1.25708 0,-2.7993 0,-3.87366 0,-1.07437 0,-1.68088 0.0254,-2.01453 0.0254,-0.33366 0.0761,-0.38437 0.12596,-0.50213 0.0499,-0.11775 0.1006,-0.30935 0.12689,-0.88514 0.0263,-0.57578 0.0263,-1.53886 0.0263,-2.92735 0,-1.38849 0,-3.20239 -0.0249,-4.75514 -0.0249,-1.55275 -0.075,-2.84473 -0.10025,-3.86999 -0.0253,-1.02526 -0.0253,-1.78343 -0.0473,-2.21161 -0.022,-0.42818 -0.0722,-0.52845 -0.10023,-0.95299 -0.0281,-0.42455 -0.0281,-1.1714 -0.0281,-1.64637 0,-0.47497 0,-0.67804 0,-0.80183 0,-0.12379 0,-0.16839 0,-0.16837 0,1e-5 0,0.0446 0,0.0349 0,-0.01 0,-0.0734 -0.084,0.18782 -0.084,0.26118 -0.25023,0.85063 -0.41456,1.43344"
       id="path1709" />
  </g>
  <g
     id="layer6">
    <path
       style="fill:none;stroke:#000000;stroke-width:1px;stroke-linecap:butt;stroke-linejoin:miter;stroke-opacity:1"
       d="m 124.30202,221.19394 c 0.0503,-1.09401 0.10108,-2.19754 0.12668,-2.97748 0.0256,-0.77993 0.0256,-1.23674 0.0754,-1.61941 0.0498,-0.38268 0.15127,-0.68722 0.20302,-1.03795 0.0518,-0.35074 0.0518,-0.75167 0.22625,-1.51016 0.17448,-0.75849 0.52542,-1.87077 0.70187,-2.61753 0.17645,-0.74676 0.17645,-1.13177 0.25259,-1.40541 0.0761,-0.27363 0.2284,-0.4259 0.35429,-0.65068 0.12589,-0.22479 0.2274,-0.52806 0.35439,-0.78277 0.12698,-0.25472 0.27861,-0.45649 0.43035,-0.90653 0.15174,-0.45004 0.30402,-1.15427 0.38096,-1.80904 0.0769,-0.65476 0.0769,-1.26256 0.0769,-2.4541 0,-1.19154 0,-2.9668 0.0252,-4.41299 0.0252,-1.44619 0.0759,-2.56284 0.10152,-3.34871 0.0256,-0.78586 0.0256,-1.2414 0.0741,-1.61552 0.0485,-0.37413 0.14767,-0.6627 0.19824,-1.00466 0.0506,-0.34197 0.0506,-0.74145 0.10055,-1.19453 0.05,-0.45309 0.1515,-0.95743 0.27697,-1.43612 0.12547,-0.47869 0.27535,-0.93007 0.35129,-1.25528 0.0759,-0.32521 0.0759,-0.52823 0.22713,-1.39002 0.15118,-0.86179 0.45509,-2.38003 0.60782,-3.56691 0.15272,-1.18689 0.15272,-2.04473 0.15272,-3.40329 0,-1.35855 0,-3.21782 0.0505,-5.23654 0.0505,-2.01873 0.15204,-4.19641 0.0804,-5.83538 -0.0717,-1.63897 -0.31954,-2.74139 -0.4448,-3.49312 -0.12525,-0.75173 -0.12525,-1.15112 -0.14829,-1.42413 -0.023,-0.273 -0.0732,-0.42165 0.0203,-0.24584 0.0935,0.17582 0.32886,0.67604 0.55862,1.16423"
       id="path1714" />
  </g>
  <g
     id="layer7">
    <path
       style="fill:none;stroke:#000000;stroke-width:1px;stroke-linecap:butt;stroke-linejoin:miter;stroke-opacity:1"
       d="m 143.50768,209.76315 c -0.30166,-1.23079 -0.6062,-2.47332 -0.80883,-3.31001 -0.20263,-0.83668 -0.30321,-1.26745 -0.40172,-1.60737 -0.0985,-0.33991 -0.19698,-0.58933 -0.2486,-0.94347 -0.0516,-0.35415 -0.0516,-0.81096 -0.1009,-1.2412 -0.0493,-0.43024 -0.1508,-0.83568 -0.20303,-1.16587 -0.0522,-0.33018 -0.0522,-0.58335 -0.10151,-0.91142 -0.0493,-0.32808 -0.1508,-0.73283 -0.32882,-1.59426 -0.17802,-0.86142 -0.4318,-2.17924 -0.65784,-3.03998 -0.22604,-0.86075 -0.42813,-1.26493 -0.53218,-1.64264 -0.10404,-0.37771 -0.10404,-0.72695 -0.15309,-1.07766 -0.049,-0.35071 -0.15057,-0.70479 -0.30116,-1.0595 -0.15059,-0.35471 -0.35361,-0.71 -0.75937,-1.36994 -0.40576,-0.65993 -1.01484,-1.62432 -1.42126,-2.30841 -0.40641,-0.6841 -0.60881,-1.08825 -0.83538,-1.46782 -0.22656,-0.37957 -0.47939,-0.73391 -0.60986,-0.96207 -0.13047,-0.22815 -0.13047,-0.32868 -0.2016,-0.4551 -0.0711,-0.12641 -0.22341,-0.27868 -0.37867,-0.5816 -0.15527,-0.30292 -0.30754,-0.75849 -0.53309,-1.1881 -0.22556,-0.4296 -0.52881,-0.83244 -0.70856,-1.13476 -0.17974,-0.30231 -0.23049,-0.50467 -0.35002,-0.72751 -0.11953,-0.22284 -0.31368,-0.46535 -0.4646,-0.81466 -0.15093,-0.34932 -0.25244,-0.80613 -0.37643,-1.13628 -0.12399,-0.33014 -0.27626,-0.53317 -0.47994,-1.01346 -0.20367,-0.48029 -0.45432,-1.23864 -0.65486,-1.79417 -0.20054,-0.55553 -0.35219,-0.90831 -0.47867,-1.27998 -0.12648,-0.37167 -0.22559,-0.76193 -0.27664,-1.28024 -0.0511,-0.51831 -0.0511,-1.16289 -0.1998,-1.83021 -0.14874,-0.66732 -0.45151,-1.35945 -0.75956,-2.06365"
       id="path1719" />
  </g>
  <g
     id="layer1" />
</svg>
