<?xml version="1.0" encoding="UTF-8" standalone="no"?>
<!-- Created with Inkscape (http://www.inkscape.org/) -->

<svg
   width="1920"
   height="1080"
   viewBox="0 0 507.99999 285.75001"
   version="1.1"
   id="svg6533"
   xmlns="http://www.w3.org/2000/svg"
   xmlns:svg="http://www.w3.org/2000/svg">
  <defs
     id="defs6530" />
  <g
     id="layer1">
    <path
       style="fill:#000000;stroke-width:0.260958"
       d="m 284.5082,282.6332 c -0.0775,-0.12896 -1.27155,-0.73035 -2.65338,-1.33641 -1.38181,-0.60608 -2.74403,-1.23732 -3.02715,-1.40274 -1.33283,-0.77883 -5.31641,-2.81205 -6.08685,-3.10674 -0.98542,-0.37692 -3.66075,-0.91741 -7.0669,-1.42769 -1.28902,-0.19312 -2.45439,-0.42145 -2.58972,-0.50742 -0.36183,-0.22989 -5.33337,-1.24497 -6.09741,-1.24497 -0.36011,0 -2.88999,-0.76352 -5.622,-1.69671 -2.73198,-0.93319 -5.37265,-1.7784 -5.86811,-1.87825 -1.39262,-0.28065 -3.34504,-0.9294 -4.76157,-1.58216 -0.7078,-0.32617 -2.15557,-0.85768 -3.21727,-1.18113 -2.06992,-0.63062 -2.42982,-0.78106 -6.17718,-2.58209 -2.56852,-1.23447 -9.15781,-3.52133 -15.44293,-5.35957 -1.0617,-0.31052 -2.1079,-0.66225 -2.32488,-0.78161 -0.21699,-0.11937 -0.7961,-0.30127 -1.28691,-0.40423 -0.49082,-0.10296 -1.52941,-0.42644 -2.308,-0.71884 -1.85412,-0.69633 -6.60268,-1.7045 -9.87602,-2.09679 -2.58686,-0.31002 -10.04613,-0.20918 -20.23769,0.27358 -5.13963,0.24346 -10.5572,0.93094 -12.9978,1.6494 -1.85931,0.54734 -3.82777,1.01399 -6.94931,1.6474 -0.99093,0.20108 -2.38079,0.50093 -3.08859,0.66634 -1.23035,0.28753 -6.38526,1.95296 -7.46408,2.41147 -0.28312,0.12033 -1.38343,0.47695 -2.44513,0.7925 -1.0617,0.31554 -2.6253,0.84998 -3.47466,1.18764 -2.23041,0.88669 -4.49357,1.62817 -5.55849,1.82113 -0.50909,0.0923 -1.40112,0.40388 -1.98228,0.69253 -1.441,0.71569 -2.50277,0.67536 -3.28098,-0.12462 -0.53142,-0.54629 -0.63176,-0.90348 -0.63176,-2.24896 0,-1.73067 -0.15658,-1.8765 -1.39299,-1.29739 -0.5238,0.24533 -0.59719,0.39411 -0.39038,0.79136 0.18186,0.34931 0.14206,0.71315 -0.13918,1.27222 -0.21664,0.43065 -0.39757,0.99728 -0.40207,1.25916 -0.0103,0.60017 -0.4723,1.22654 -1.19746,1.62357 -0.33515,0.18349 -1.84235,0.31342 -3.73204,0.32172 -3.14143,0.0138 -5.45705,0.34104 -8.18881,1.15726 -0.77858,0.23263 -3.83021,0.77881 -6.7814,1.21374 -2.95119,0.43492 -5.46837,0.85594 -5.59374,0.93558 -0.12536,0.0797 -1.1275,0.3242 -2.22697,0.54344 -1.09947,0.21924 -2.317768,0.46512 -2.707318,0.5464 -0.90058,0.18791 -1.81335,-0.41226 -2.24096,-1.47349 -0.28702,-0.7123 -0.2599,-0.92295 0.22836,-1.77363 0.30473,-0.53093 0.50454,-1.01622 0.44404,-1.07842 -0.0605,-0.0622 -3.80048,-0.10533 -8.31104,-0.0958 -12.24302,0.0258 -14.87372,-0.34069 -15.28441,-2.12909 -0.1213,-0.5282 -0.36456,-0.67198 -1.421731,-0.84033 -5.490301,-0.8743 -6.42649,-1.1076 -7.000725,-1.74454 -0.756449,-0.83906 -0.737045,-1.90329 0.05063,-2.77699 0.74211,-0.82315 1.195064,-0.85373 4.711208,-0.318 3.594758,0.54769 8.813648,0.82385 8.813648,0.46636 0,-0.15666 -0.11506,-0.59594 -0.25569,-0.97617 -0.35101,-0.94905 0.26881,-2.43575 1.16083,-2.78438 1.12092,-0.4381 25.459088,-0.33957 29.120608,0.11788 1.67632,0.20944 3.82965,0.43385 4.78519,0.4987 l 1.73733,0.11792 v -0.88082 c 0,-1.93334 2.00184,-3.01506 6.81197,-3.68094 3.98337,-0.55143 4.40904,-0.69933 4.27776,-1.48636 -0.17183,-1.03014 -0.12862,-30.35768 0.0477,-32.40111 0.0885,-1.02595 0.28274,-2.19456 0.43155,-2.59691 0.14881,-0.40235 0.27056,-1.62459 0.27056,-2.71609 0,-1.0915 0.12386,-2.22245 0.27525,-2.51323 0.19869,-0.38165 0.19312,-0.6304 -0.02,-0.89442 -0.55613,-0.68885 0.1127,-6.68874 0.99705,-8.94423 0.41288,-1.05303 0.38552,-1.13554 -0.50176,-1.51335 -0.94669,-0.4031 -1.3158,-1.24526 -1.32953,-3.03348 -0.0133,-1.73112 0.25427,-3.08329 0.99473,-5.02709 0.91411,-2.39964 1.81896,-5.88577 2.0139,-7.75892 l 0.17416,-1.67352 -1.0445,-1.16484 c -1.33261,-1.48616 -1.34937,-2.23198 -0.13691,-6.09227 0.49916,-1.58929 1.00382,-3.59399 1.12146,-4.45489 0.19271,-1.4103 0.15381,-1.65628 -0.39281,-2.48432 -0.33369,-0.50547 -0.6067,-1.08521 -0.6067,-1.2883 0,-0.20309 -0.18938,-0.66637 -0.42083,-1.0295 -0.28323,-0.44436 -0.48918,-1.63085 -0.62986,-3.62871 -0.22302,-3.16707 -0.62069,-6.51506 -0.90257,-7.59869 -0.20496,-0.7879 -0.28349,-1.67813 -0.54848,-6.2177 -0.11043,-1.89177 -0.28672,-3.57551 -0.39176,-3.74164 -0.46154,-0.72994 -0.76392,-8.74903 -0.73547,-19.50504 0.0169,-6.38275 0.0974,-11.71603 0.17903,-11.85174 0.0816,-0.1357 -0.0191,-0.50938 -0.22363,-0.83041 -0.52653,-0.8262 -1.5696,-4.1165 -2.49867,-7.88189 -0.43725,-1.77211 -0.88759,-3.41481 -1.00076,-3.65045 -0.22431,-0.46704 -0.88309,-3.655371 -1.31857,-6.381545 -0.55709,-3.487481 -0.78709,-4.642506 -1.0274,-5.159375 -0.13532,-0.291041 -0.37439,-1.537835 -0.53126,-2.770653 -0.15688,-1.232818 -0.34503,-2.340938 -0.4181,-2.46249 -0.0731,-0.121553 -0.23437,-1.422212 -0.35843,-2.890356 -0.12405,-1.468141 -0.37228,-3.098459 -0.55162,-3.622927 -0.22716,-0.664305 -0.3161,-2.598946 -0.29318,-6.377532 0.0181,-2.983177 0.0183,-5.840677 5.2e-4,-6.35 -0.0178,-0.509323 -0.0341,-4.027109 -0.0361,-7.817303 -0.003,-6.12177 0.0465,-6.970117 0.44667,-7.597462 0.36346,-0.569863 0.45042,-1.297454 0.45042,-3.768757 0,-3.108264 0.0346,-3.25714 1.25938,-5.422728 0.51788,-0.915675 0.79986,-3.124351 0.80273,-6.287651 0.003,-3.499562 0.27764,-5.095715 1.23913,-7.206099 0.45027,-0.988299 0.5649,-1.865046 0.67458,-5.159375 0.36282,-10.897417 0.3017,-10.257797 1.04292,-10.914063 0.97285,-0.861351 2.07287,-0.777927 2.98553,0.226419 0.52897,0.582094 0.74673,1.091249 0.74673,1.74593 0,0.685727 0.19924,1.115522 0.77215,1.665672 0.76855,0.738027 0.77214,0.755173 0.77214,3.688627 v 2.947152 l 1.02953,1.006769 c 0.75178,0.735158 1.02953,1.219519 1.02953,1.795365 0,1.39638 1.36238,2.321702 4.03342,2.739489 0.96672,0.151209 3.26336,0.51269 5.10365,0.803293 1.84028,0.290601 4.21463,0.644934 5.27633,0.787406 1.0617,0.142471 2.91485,0.435678 4.11812,0.651571 7.32151,1.313647 6.90428,1.283643 18.6602,1.341913 7.55461,0.03745 11.56603,0.153752 12.04937,0.349358 0.39851,0.161273 1.24397,0.293224 1.87881,0.293224 0.63483,0 1.50711,0.187581 1.9384,0.416847 0.43128,0.229267 1.32315,0.522218 1.98193,0.651003 0.65877,0.128785 1.79813,0.349495 2.53191,0.490468 0.73378,0.140973 1.56587,0.383803 1.8491,0.539623 0.28323,0.15582 0.78636,0.283309 1.11807,0.283309 0.33171,0 0.88948,0.207363 1.23948,0.460806 0.35001,0.253444 1.33132,0.537495 2.18068,0.631226 0.84936,0.09373 1.96602,0.257031 2.48147,0.36289 0.85868,0.176351 0.96666,0.129024 1.28932,-0.56508 0.38028,-0.818072 1.3024,-1.127944 1.88287,-0.632722 0.24026,0.204981 0.40095,0.211309 0.51578,0.02031 0.0917,-0.152586 0.39568,-0.27743 0.67543,-0.27743 0.27975,0 0.77988,-0.182705 1.11141,-0.40601 0.47977,-0.323148 0.73392,-0.344592 1.2453,-0.105071 0.48486,0.227095 0.78277,0.223774 1.21412,-0.01353 0.47902,-0.263535 0.66148,-0.229792 1.12643,0.208316 0.39983,0.376742 0.78726,0.485746 1.38683,0.390191 0.71497,-0.113946 0.8677,-0.03611 1.08569,0.553283 0.21593,0.583853 0.36622,0.662742 1.01027,0.530327 0.99342,-0.204241 1.31884,0.412879 1.31884,2.500963 0,1.854624 0.058,1.897785 2.55001,1.897785 1.48158,0 1.81772,0.08967 2.29539,0.612365 0.34819,0.381003 0.55963,0.952458 0.55963,1.512509 0,0.495078 0.19201,1.416982 0.42669,2.048674 0.39425,1.061252 0.395,1.216837 0.01,2.04741 -0.61543,1.326684 -1.43962,1.618903 -4.42582,1.569182 -1.4156,-0.02357 -2.7186,0.01267 -2.89555,0.08056 -0.25159,0.09651 -0.32172,3.058713 -0.32172,13.588857 l -8e-5,13.465442 h -1.0343 -1.03431 l 0.0163,-12.501563 0.0163,-12.501562 -0.84696,-0.08776 c -0.46583,-0.04827 -0.99712,-0.215866 -1.18064,-0.372433 -0.38963,-0.332409 -0.73443,-0.045 -0.8695,0.724778 -0.0673,0.383318 -0.2954,0.529167 -0.8277,0.529167 -0.61278,0 -0.78321,-0.153829 -1.02601,-0.926042 -0.35652,-1.133943 -0.76227,-1.109747 -0.93461,0.05573 -0.0998,0.675224 -0.26969,0.890767 -0.75773,0.96158 -0.84225,0.122211 -1.30133,-0.578871 -1.30133,-1.987312 0,-1.100854 -0.0208,-1.129173 -0.72222,-0.984956 -0.85064,0.174889 -1.25364,-0.218527 -1.37841,-1.345637 -0.084,-0.758573 -0.15695,-0.79956 -2.01748,-1.132935 -1.0617,-0.190235 -2.91486,-0.525216 -4.11812,-0.744397 -1.20326,-0.219184 -3.17223,-0.568023 -4.37549,-0.775203 -5.15974,-0.88841 -6.7801,-1.183351 -7.17415,-1.305848 -0.23024,-0.07158 -1.57685,-0.315116 -2.99245,-0.541195 -1.4156,-0.226078 -3.55831,-0.591822 -4.76157,-0.812768 -6.85028,-1.257861 -11.31308,-1.966378 -12.39934,-1.968527 -0.77823,-0.0016 -1.13119,0.197385 -1.99193,1.122609 -0.57536,0.618464 -1.04736,1.223505 -1.04888,1.344533 -0.003,0.223774 -1.40848,2.067536 -2.5766,3.379647 -0.3539,0.397529 -1.39194,1.286632 -2.30675,1.975787 -3.39238,2.555576 -14.85765,14.319239 -17.00081,17.443262 -1.8648,2.718255 -4.11423,7.097689 -4.11423,8.010028 0,0.773673 -0.67905,2.184402 -1.30233,2.705597 -0.45063,0.376817 -0.45571,0.534416 -0.10058,3.118202 0.20572,1.496729 0.60473,3.425301 0.8867,4.285716 0.28196,0.860414 0.50753,1.838473 0.50127,2.173464 -0.0254,1.357342 0.35559,4.334336 0.5942,4.643345 0.1402,0.181557 0.3077,1.491245 0.37223,2.910417 0.0645,1.419175 0.29201,3.291147 0.50549,4.159943 0.46744,1.902251 0.82091,4.431217 1.09201,7.813078 0.11082,1.38245 0.2807,2.6971 0.3775,2.92145 0.0968,0.22434 0.22639,2.2484 0.28795,4.49791 0.20076,7.33552 0.58307,13.59412 0.89375,14.63126 0.16743,0.55893 0.24141,1.18504 0.16439,1.39136 -0.077,0.20632 -0.004,0.70151 0.16274,1.10043 0.28411,0.68059 0.55503,4.166 0.829,10.66523 0.0648,1.53789 0.23883,3.12322 0.38667,3.52295 0.14784,0.39973 0.27388,1.70129 0.28009,2.89237 0.007,1.33039 0.16879,2.57375 0.41964,3.22392 0.22458,0.58208 0.46182,1.65365 0.52719,2.38125 0.0654,0.7276 0.22401,1.43603 0.35252,1.57427 0.12851,0.13825 0.23365,0.75557 0.23365,1.37184 0,0.61627 0.13571,1.45566 0.30157,1.86531 0.1705,0.4211 0.32093,2.29728 0.34611,4.3167 0.0245,1.96454 0.12143,4.28625 0.21541,5.15938 0.094,0.87312 0.22342,2.21203 0.28765,2.97533 0.0642,0.76331 0.22527,1.59675 0.35787,1.85209 0.34609,0.66646 0.54969,13.00037 0.6497,39.358 0.0622,16.39759 0.17155,23.23299 0.38012,23.76358 0.18549,0.4719 0.29277,2.72026 0.29277,6.13594 0,3.62155 0.0925,5.44991 0.28193,5.57024 0.15506,0.0985 0.53148,0.0551 0.83649,-0.0964 0.30501,-0.15152 1.39706,-0.47675 2.42677,-0.72273 l 1.87219,-0.44724 -0.16319,-0.89424 c -0.0898,-0.49184 -0.0885,-1.20018 0.003,-1.57409 0.2931,-1.20045 1.16179,-1.3526 7.2978,-1.2782 5.62217,0.0682 8.55848,0.29695 13.31213,1.03721 1.41561,0.22044 4.42698,0.50893 6.69194,0.64109 2.26496,0.13216 5.68171,0.37445 7.59277,0.53843 1.91107,0.16398 5.15408,0.40696 7.2067,0.53995 3.71587,0.24076 8.51351,0.78627 11.45351,1.30231 0.84936,0.14908 2.35505,0.38536 3.34597,0.52507 3.04385,0.42914 5.07294,0.80302 6.84716,1.26168 1.59619,0.41262 1.75641,0.41159 2.63518,-0.0171 0.66017,-0.32203 1.07144,-0.38171 1.39683,-0.2027 0.43151,0.2374 1.36542,0.40803 6.04371,1.10421 1.02631,0.15272 2.53246,0.50991 3.34699,0.79375 0.81454,0.28383 1.59634,0.51606 1.73733,0.51606 0.141,0 0.25635,-0.51502 0.25635,-1.1445 0,-1.71014 0.79725,-2.3871 2.61707,-2.22226 3.70679,0.33576 10.2818,1.80831 12.69717,2.8437 0.98403,0.42181 3.73603,1.31683 4.0548,1.3187 0.34201,0.002 4.60879,1.60015 6.1118,2.28918 3.32018,1.5221 12.42896,6.32522 12.68544,6.68912 0.44326,0.62892 2.46508,1.9606 3.52963,2.32484 0.49546,0.16953 1.68174,0.49129 2.63619,0.71502 0.95442,0.22375 2.9234,0.81361 4.3755,1.31082 1.45207,0.4972 3.29083,0.98198 4.08609,1.07728 0.79526,0.0953 2.99588,0.64983 4.89026,1.23228 1.89439,0.58245 4.1419,1.20695 4.99448,1.38777 0.8526,0.18083 1.6876,0.41609 1.85554,0.5228 0.16797,0.10671 0.51281,0.0761 0.76628,-0.068 0.2535,-0.14411 1.38747,-0.58113 2.51995,-0.97116 1.13248,-0.39003 3.16372,-1.09792 4.51384,-1.57309 2.61271,-0.91953 3.51865,-0.93824 4.26704,-0.0881 0.47098,0.53498 0.59841,1.89813 0.25035,2.67804 -0.18436,0.41313 -0.0442,0.46164 1.30086,0.45017 2.44511,-0.0208 11.21638,-0.98696 14.24791,-1.56936 0.77858,-0.14957 2.38014,-0.30125 3.559,-0.33706 2.06418,-0.0627 2.16646,-0.0377 2.76686,0.67725 0.71995,0.85726 0.77868,1.4889 0.23834,2.56306 -0.46445,0.92328 -0.15217,1.23218 0.85108,0.84182 0.38075,-0.14814 1.73465,-0.58499 3.0087,-0.97076 1.27404,-0.38578 2.51405,-0.80958 2.75561,-0.94178 0.79178,-0.43335 2.43344,-0.58153 2.99852,-0.27065 0.30052,0.16533 0.73576,0.67701 0.96717,1.13707 0.39202,0.77924 0.39017,0.89493 -0.0269,1.69106 -0.44847,0.85607 -0.58022,0.92395 -4.50664,2.32183 -0.85355,0.30389 -0.89648,0.37709 -0.81788,1.39501 0.0637,0.8253 -0.0567,1.24118 -0.51958,1.79436 -0.70388,0.84125 -1.41884,0.97489 -8.57175,1.60232 -2.54808,0.22352 -5.7911,0.59224 -7.2067,0.81942 -2.57838,0.41372 -5.21943,0.67825 -11.71089,1.17297 -1.91106,0.14566 -4.40123,0.37248 -5.53371,0.50411 -1.13248,0.13161 -3.5937,0.17095 -5.46937,0.0874 -3.6223,-0.16129 -3.66734,-0.14544 -3.1169,1.09643 0.22451,0.50655 0.21599,0.85408 -0.0363,1.48014 -0.4552,1.12974 -2.26872,2.04351 -2.68416,1.35249 z m -0.46725,-6.1817 c -0.12723,-0.39714 -1.22386,-0.61119 -1.22386,-0.23889 0,0.27834 0.42469,0.51454 0.98663,0.54875 0.18876,0.0114 0.2955,-0.12796 0.23723,-0.30986 z m 15.11991,-2.84147 c 4.36963,-0.55558 9.7953,-1.48669 10.21432,-1.75291 0.55226,-0.35086 -0.6894,-0.58692 -1.86796,-0.35513 -3.38159,0.66508 -6.43156,0.90354 -12.52882,0.97955 -6.25058,0.0779 -7.32319,0.20513 -6.4433,0.76414 0.93278,0.59261 7.15296,0.8059 10.62576,0.36435 z m -57.52491,-9.86911 c -0.3539,-0.16803 -0.70137,-0.37925 -0.77215,-0.46938 -0.0708,-0.0901 -0.7078,-0.38182 -1.4156,-0.64819 -0.7078,-0.26638 -1.40273,-0.56561 -1.54429,-0.66496 -0.14156,-0.0993 -0.60485,-0.30855 -1.02953,-0.4649 -0.42468,-0.15635 -1.5672,-0.58895 -2.53895,-0.96133 -2.2377,-0.85752 -2.7598,-0.59415 -0.76844,0.38766 2.64108,1.30214 3.25676,1.55275 5.75252,2.34154 2.59318,0.81957 3.37232,0.98087 2.31644,0.47956 z m 20.59057,-0.41039 c 0,-0.29499 -2.39991,-1.62955 -2.93037,-1.62955 -0.66634,0 -0.47925,0.51824 0.29221,0.80947 0.38929,0.14696 1.05526,0.43895 1.47994,0.64888 0.89433,0.44208 1.15822,0.48109 1.15822,0.1712 z M 96.472412,261.55912 c 0,-0.33129 -0.33318,-0.39781 -1.80167,-0.35971 -2.70615,0.0702 -2.33751,0.67214 0.45042,0.73546 1.05663,0.024 1.35125,-0.0579 1.35125,-0.37575 z m 150.236468,-2.14126 c 0.0481,-0.14844 -0.2918,-0.40077 -0.75537,-0.56073 -0.77917,-0.26884 -7.55903,-2.72386 -8.43567,-3.05459 -2.47929,-0.93535 -7.4454,-2.2863 -8.44446,-2.29717 -0.82781,-0.009 -0.47304,0.44306 0.52445,0.66827 0.45381,0.10246 1.00263,0.28019 1.21963,0.39495 0.21697,0.11476 1.20527,0.46412 2.19619,0.77636 0.99092,0.31223 2.03332,0.66352 2.31644,0.78064 0.28312,0.11712 1.20969,0.4833 2.05905,0.81372 0.84937,0.33043 1.89176,0.76161 2.31644,0.95818 3.6486,1.68884 6.73163,2.35815 7.0033,1.52037 z m -119.35061,-2.2148 c 0,-0.14552 -0.23848,-0.26458 -0.52995,-0.26458 -0.29148,0 -0.45837,0.11906 -0.37088,0.26458 0.0875,0.14553 0.32596,0.26459 0.52995,0.26459 0.20399,0 0.37088,-0.11906 0.37088,-0.26459 z m 16.02204,-2.04525 c 0.76272,-0.22544 0.49857,-0.60058 -0.42288,-0.60058 -0.51177,0 -0.93063,0.15359 -1.01179,0.37101 -0.18421,0.49345 0.0907,0.74413 0.58474,0.53324 0.21973,-0.0938 0.6022,-0.23044 0.84993,-0.30367 z m 79.98439,-3.38532 c -0.0794,-0.57342 -5.15053,-1.80532 -5.15053,-1.25119 0,0.2574 0.94648,0.60243 3.34597,1.21975 1.57222,0.40449 1.85691,0.40945 1.80456,0.0314 z m -77.98968,-2.24717 c 2.50792,-0.36021 3.33618,-0.55858 3.50504,-0.83945 0.18724,-0.31145 -7.1289,0.0107 -7.46429,0.32872 -0.12497,0.11847 -0.15818,0.40032 -0.0738,0.62634 0.1613,0.4321 0.23423,0.43001 4.03306,-0.11561 z M 128.89429,60.013387 c 0.77403,-1.195625 1.71287,-2.531054 2.08631,-2.967617 2.05451,-2.401792 4.29606,-4.827423 4.89006,-5.291666 0.37239,-0.291042 2.40262,-2.299574 4.51161,-4.463405 3.49228,-3.58308 7.27337,-7.04597 7.69342,-7.04597 0.092,0 0.33751,-0.174961 0.54552,-0.388803 0.33271,-0.342011 0.26477,-0.437531 -0.56458,-0.79375 -0.51854,-0.222721 -1.68611,-0.404947 -2.5946,-0.404947 -1.14388,0 -1.96208,-0.162719 -2.66083,-0.529167 -0.55496,-0.291042 -1.21632,-0.530704 -1.46969,-0.53258 -0.45796,-0.0034 -3.33776,-0.858279 -4.32141,-1.282835 -0.28312,-0.122199 -1.537,-0.731211 -2.78641,-1.35336 -1.94294,-0.967501 -2.36192,-1.088897 -2.89555,-0.838959 -0.58084,0.272054 -0.6239,0.431399 -0.6239,2.308728 0,1.940504 -0.033,2.050412 -0.8751,2.916089 -0.4813,0.494771 -1.11832,0.914466 -1.4156,0.932656 -0.29728,0.01818 -0.68528,0.04796 -0.86223,0.06615 -0.25046,0.02574 -0.33661,2.45059 -0.38893,10.947136 -0.037,6.002734 0.0209,10.910038 0.12869,10.905117 0.10774,-0.0049 0.82919,-0.987185 1.60322,-2.182813 z"
       id="path6591" />
    <path
       style="fill:#000000;stroke-width:0.264583;fill-opacity:1"
       d="m 210.64539,109.0789 c 0,-0.12216 0.30579,-0.36144 0.67953,-0.53172 1.21496,-0.55358 0.76424,-1.36821 -1.34099,-2.42366 -2.18541,-1.09564 -4.29054,-3.04753 -5.2764,-4.8923 -0.38884,-0.7276 -0.99718,-1.811585 -1.35188,-2.408865 -0.84205,-1.41792 -1.48166,-4.37811 -1.62335,-7.513 l -0.11361,-2.51354 1.21996,-2.51354 c 0.67097,-1.38245 1.68975,-3.16839 2.26395,-3.96875 0.5742,-0.80037 1.0442,-1.5649 1.04444,-1.69896 2.4e-4,-0.13406 0.15439,-0.43172 0.34255,-0.66146 0.72779,-0.88858 1.0164,-2.36598 0.83058,-4.25177 l -0.18274,-1.85448 h 1.09252 c 1.03265,0 1.09252,0.0426 1.09252,0.77814 0,1.01245 0.33357,1.18868 1.30201,0.68788 1.63384,-0.84489 6.37304,-0.31487 8.48758,0.94923 0.21828,0.13049 0.88174,0.46058 1.47436,0.73354 1.30376,0.60051 4.21963,3.24678 4.78745,4.34482 0.22577,0.4366 0.68411,1.0889 1.01852,1.44954 0.33441,0.36065 0.933,1.29805 1.33021,2.08312 0.3972,0.78506 1.06311,1.85637 1.47978,2.38069 0.41668,0.52432 0.75759,1.16803 0.75759,1.43047 0,0.26245 0.11907,0.55076 0.26459,0.64069 0.41402,0.25588 0.3173,5.38781 -0.12466,6.61459 -0.20971,0.58208 -0.38651,1.79545 -0.3929,2.69636 -0.006,0.90092 -0.13067,1.711615 -0.27619,1.801545 -0.14552,0.0899 -0.26459,0.51708 -0.26459,0.94921 0,1.16281 -1.45631,3.83855 -2.94711,5.41486 -1.50768,1.59414 -2.55857,1.97031 -5.50442,1.97031 -1.06842,0 -1.86722,0.11319 -1.86722,0.26458 0,0.16501 -1.5434,0.26459 -4.10104,0.26459 -2.25557,0 -4.10104,-0.1 -4.10104,-0.22212 z m 12.47422,-5.53257 c 1.23856,-1.35116 1.77185,-2.611 1.95385,-4.615765 0.0965,-1.06297 0.34248,-2.6047 0.54661,-3.42607 0.20414,-0.82137 0.37115,-2.26949 0.37115,-3.21805 0,-1.52681 -0.10623,-1.88596 -0.92604,-3.13078 -0.50932,-0.77336 -0.92604,-1.55766 -0.92604,-1.74288 0,-0.52893 -0.45261,-0.39349 -0.60268,0.18035 -0.0783,0.29948 -0.45321,0.58717 -0.89075,0.68356 -1.56703,0.34521 -1.57638,0.36918 -0.52108,1.33596 0.93551,0.85704 0.98038,0.9637 0.62844,1.49376 -0.54237,0.81685 -0.78201,0.82666 -1.88642,0.0772 -0.54139,-0.36739 -1.32922,-0.66799 -1.75073,-0.66799 -0.89131,0 -1.18738,-0.36347 -1.11113,-1.3641 0.0301,-0.39478 -0.0657,-0.79217 -0.21277,-0.88308 -0.47579,-0.29405 -0.30534,-1.68268 0.24254,-1.9759 0.53728,-0.28754 1.34208,-0.11805 1.34208,0.28264 0,0.33988 0.99284,0.29171 1.20939,-0.0587 0.11192,-0.18109 0.67969,-0.24715 1.47082,-0.17113 1.52941,0.14696 1.64666,-0.15015 0.49479,-1.25372 -0.43656,-0.41825 -0.79375,-0.88327 -0.79375,-1.03337 0,-0.45119 -2.7263,-3.06767 -3.19643,-3.06767 -0.24,0 -0.72032,-0.22145 -1.06737,-0.4921 -0.66041,-0.51505 -1.62636,-0.77447 -3.75576,-1.00865 -1.4263,-0.15686 -2.0414,0.20959 -2.7321,1.62767 -0.79555,1.63337 -2.61103,4.5247 -3.1599,5.03245 -0.56644,0.52401 -1.79281,3.72679 -1.82359,4.7625 -0.0173,0.58209 0.12274,1.44147 0.31122,1.90974 0.18847,0.46826 0.34268,1.30459 0.34268,1.85849 0,1.16443 1.87125,4.67536 3.25275,6.102955 0.79812,0.82475 2.77355,1.90277 3.48675,1.90277 0.17723,0 0.53774,0.23813 0.80113,0.52917 0.26338,0.29104 0.72832,0.53099 1.03319,0.53322 0.30487,0.002 0.7329,0.11946 0.95118,0.26053 0.21828,0.14106 1.71405,0.2583 3.32394,0.26053 2.85738,0.004 2.94293,-0.0133 3.59403,-0.72355 z m -1.76239,-3.50964 c -0.28896,-0.102485 -0.94209,-0.339865 -1.45141,-0.527505 -0.50933,-0.18764 -2.1638,-0.41273 -3.67662,-0.50019 -2.1795,-0.126 -2.80892,-0.25193 -3.03159,-0.60655 -0.21494,-0.34232 -0.16513,-0.57557 0.2119,-0.99219 0.43106,-0.47631 0.80532,-0.54465 2.98283,-0.54465 1.36946,0 2.73472,0.131 3.0339,0.29112 0.29918,0.16012 1.09406,0.36981 1.7664,0.46598 0.97083,0.13888 1.29131,0.31858 1.55711,0.87316 0.56667,1.18232 -0.15426,1.980025 -1.39252,1.540825 z m -12.23318,-8.373395 c -0.631,-0.25462 -0.34126,-1.38411 0.59531,-2.32068 0.50932,-0.50932 0.92604,-1.03993 0.92604,-1.17914 0,-0.13921 -0.30625,-0.61706 -0.68055,-1.06189 -0.75743,-0.90015 -0.77019,-1.79725 -0.032,-2.2475 0.39756,-0.24248 0.61511,-0.13951 1.29141,0.61123 0.67206,0.74605 0.8877,0.8491 1.24169,0.5934 0.87508,-0.63213 1.59712,-0.89979 2.00501,-0.74327 0.71313,0.27366 0.77591,0.95475 0.14946,1.62158 -0.52866,0.56273 -0.55788,0.7246 -0.28181,1.56108 0.22534,0.6828 0.23013,1.07874 0.0179,1.47538 -0.34336,0.64156 -1.27914,0.71261 -1.70553,0.12949 -0.26112,-0.35711 -0.44914,-0.26812 -1.39745,0.66146 -1.05533,1.03448 -1.41604,1.18674 -2.12948,0.89886 z"
       id="path6703" />
    <path
       style="fill:#000000;stroke-width:0.264583"
       d="m 212.38074,160.34192 c -0.23973,-1.12533 -0.44855,-3.24573 -0.57974,-5.88698 -0.0723,-1.45521 -0.2428,-2.75894 -0.37893,-2.89719 -0.14797,-0.15026 -0.24751,-6.50806 -0.24751,-15.80885 0,-10.19528 -0.0912,-15.5575 -0.26459,-15.5575 -0.16799,0 -0.26458,-2.02847 -0.26458,-5.55625 v -5.55625 h 2.66125 2.66126 l -0.14658,5.35781 c -0.18077,6.60755 -0.17891,33.54975 0.003,41.01042 l 0.13374,5.4901 h -1.72517 c -1.57509,0 -1.7362,-0.0518 -1.85198,-0.59531 z"
       id="path6815" />
    <path
       style="fill:#000000;stroke-width:0.264583"
       d="m 215.42889,155.64553 c 0.003,-0.56698 0.0607,-0.63999 0.26053,-0.33073 0.33454,0.51767 0.33454,1.05834 0,1.05834 -0.14552,0 -0.26276,-0.32743 -0.26053,-0.72761 z m 6.46622,-0.18641 c -0.35719,-0.35719 -0.64944,-0.88949 -0.64944,-1.18289 0,-0.2934 -0.38695,-1.08215 -0.85989,-1.75278 l -0.8599,-1.21931 -0.17742,-7.71811 c -0.2006,-8.72622 -0.41623,-11.13752 -1.07994,-12.07645 -0.26879,-0.38025 -0.46243,-1.13539 -0.46243,-1.80333 0,-0.63204 -0.142,-1.40922 -0.31556,-1.72707 -0.30074,-0.5508 -0.39156,-0.96802 -0.97231,-4.46668 -0.13762,-0.82913 -0.43994,-1.77835 -0.6718,-2.10939 -0.35439,-0.50595 -0.42158,-1.52027 -0.42158,-6.36385 0,-6.955 0.11606,-7.11518 2.23402,-3.08329 1.00294,1.90926 1.99931,5.14616 1.99931,6.49516 0,0.46755 0.26423,1.29792 0.58717,1.84527 0.32295,0.54735 0.67602,1.71502 0.78461,2.59481 0.10858,0.8798 0.32891,2.13542 0.48962,2.79026 0.1607,0.65484 0.37987,1.78594 0.48704,2.51354 0.10716,0.72761 0.39651,1.70396 0.64299,2.16967 0.24649,0.46572 0.44816,1.42417 0.44816,2.1299 0,0.70573 0.14568,1.42882 0.32374,1.60688 0.22639,0.22639 0.35537,1.93073 0.42891,5.66738 0.11373,5.77835 0.0389,5.45729 1.82444,7.82717 0.82254,1.09171 0.86249,1.25332 0.86249,3.4885 0,2.85903 -0.18649,3.39168 -1.50811,4.30757 -1.28958,0.89367 -2.28617,0.91499 -3.13412,0.067 z"
       id="path6927" />
    <path
       style="fill:#000000;stroke-width:0.264583"
       d="m 203.77193,157.14433 -1.14527,-1.19527 v -2.15733 c 0,-1.68356 0.10169,-2.26954 0.46302,-2.6683 0.41029,-0.45276 0.48469,-1.43451 0.65327,-8.61978 0.28056,-11.95807 0.53874,-16.55125 0.9587,-17.05573 0.19536,-0.23468 0.45974,-1.17513 0.58752,-2.08989 0.12778,-0.91477 0.42224,-2.43711 0.65435,-3.383 0.23211,-0.94588 0.53468,-2.43417 0.67238,-3.30729 0.52953,-3.35767 1.80391,-6.43718 2.93174,-7.08446 1.56542,-0.89843 1.54569,-0.95986 1.54569,4.81345 0,3.39598 -0.0974,5.30207 -0.27379,5.36088 -0.37363,0.12455 -1.02815,2.9739 -1.0397,4.52621 -0.006,0.74663 -0.19939,1.55526 -0.47245,1.97091 -0.59951,0.91262 -0.82322,5.02738 -1.07072,19.69461 l -0.18605,11.02536 -0.64143,0.68245 c -1.0481,1.11513 -2.23818,0.94734 -3.63726,-0.51282 z"
       id="path7039" />
    <path
       style="fill:#000000;stroke-width:0.264583"
       d="m 227.64016,211.98445 c -1.0859,-0.87866 -1.2799,-1.57187 -1.2799,-4.57341 0,-2.54583 -0.0832,-3.10727 -0.62846,-4.24061 -0.58314,-1.21209 -1.13728,-3.38587 -0.99846,-3.91676 0.033,-0.12607 -0.12327,-0.50883 -0.3472,-0.85059 -0.22392,-0.34175 -0.40713,-0.92795 -0.40713,-1.30267 0,-0.37472 -0.23813,-1.14807 -0.52917,-1.71856 -0.29104,-0.57049 -0.52917,-1.27309 -0.52917,-1.56134 0,-0.28826 -0.11906,-0.59768 -0.26458,-0.68762 -0.14552,-0.0899 -0.2688,-0.54345 -0.27396,-1.0078 -0.005,-0.46436 -0.17953,-1.14194 -0.3875,-1.50574 -0.20797,-0.3638 -0.38234,-0.87635 -0.3875,-1.13899 -0.005,-0.26265 -0.2367,-0.97703 -0.51455,-1.5875 -0.27784,-0.61049 -0.589,-1.55777 -0.69145,-2.10508 -0.10245,-0.54731 -0.29184,-1.06035 -0.42087,-1.14009 -0.12902,-0.0797 -0.23459,-0.38083 -0.23459,-0.66908 0,-0.28825 -0.25662,-1.02536 -0.57028,-1.63803 -0.31366,-0.61267 -0.65872,-1.47113 -0.76681,-1.90769 -0.46924,-1.89517 -1.62345,-5.56259 -1.82931,-5.81252 -0.26208,-0.31818 -1.3804,-3.20924 -1.87102,-4.83696 -0.3677,-1.21987 -0.61373,-1.37989 -1.01705,-0.66146 -0.29727,0.52952 -0.39613,0.34615 -0.67525,-1.25244 -0.0885,-0.50694 -0.45601,-1.36759 -0.81665,-1.91255 -0.81441,-1.23066 -0.85012,-2.65946 -0.0978,-3.91261 0.98328,-1.63783 1.57338,-2.11723 2.59703,-2.10984 0.8375,0.006 0.99457,0.11991 1.36868,0.99219 0.23243,0.54195 0.57501,1.6402 0.76129,2.44057 0.18628,0.80036 0.79978,2.33828 1.36333,3.41759 0.56356,1.07931 1.02465,2.19203 1.02465,2.47271 0,0.28069 0.16051,0.82637 0.35669,1.21262 1.09541,2.15669 2.28765,5.34036 2.29077,6.11707 9e-4,0.22333 0.17949,0.74708 0.39688,1.1639 0.21738,0.41681 0.39524,0.99807 0.39524,1.29168 0,0.29361 0.22613,0.90508 0.50252,1.35882 0.27638,0.45374 0.75915,1.74878 1.07282,2.87786 0.66752,2.40285 1.21984,3.79779 1.59565,4.03006 0.14773,0.0913 0.26859,0.52207 0.26859,0.95727 0,0.4352 0.16314,1.11279 0.36252,1.50574 0.19939,0.39296 0.44779,1.29988 0.552,2.01539 0.10422,0.71552 0.35175,1.54895 0.55007,1.85209 0.42687,0.65248 1.20197,3.3587 1.94086,6.77645 0.12674,0.58626 0.41718,1.27227 0.64542,1.52446 0.31421,0.34721 0.44422,1.26082 0.53543,3.76273 0.0663,1.8173 0.20642,3.75798 0.31147,4.31263 0.15978,0.84358 0.0919,1.11392 -0.41512,1.65364 -0.67686,0.72048 -2.23084,0.8868 -2.93816,0.31447 z"
       id="path7151" />
    <path
       style="fill:#000000;stroke-width:0.264583"
       d="m 207.18223,227.09244 c -0.89411,-0.68647 -1.08551,-1.44969 -0.76414,-3.04703 0.16693,-0.82974 0.41231,-1.71536 0.54529,-1.96805 0.13298,-0.25268 0.2447,-0.78846 0.24828,-1.19062 0.004,-0.40216 0.2417,-1.43429 0.52917,-2.29362 0.28746,-0.85933 0.52266,-1.87732 0.52266,-2.26219 0,-0.38487 0.10859,-0.81287 0.2413,-0.95111 0.13272,-0.13825 0.30126,-0.9062 0.37453,-1.70657 0.22012,-2.40425 0.73511,-4.83798 1.2317,-5.8207 0.29218,-0.5782 0.54026,-1.90765 0.6603,-3.5385 0.10576,-1.43678 0.35866,-3.01054 0.56202,-3.49723 0.22189,-0.53106 0.36973,-1.81934 0.36973,-3.22174 0,-1.28525 0.12222,-2.45904 0.2716,-2.60842 0.5725,-0.57251 -0.11896,-26.98532 -0.73462,-28.06112 -0.41623,-0.72732 -0.43372,-4.33052 -0.0254,-5.22675 0.16795,-0.36861 0.57636,-0.84776 0.90758,-1.06478 0.56389,-0.36948 0.64479,-0.34398 1.27161,0.40095 0.36817,0.43754 0.74496,1.23851 0.83731,1.77993 0.1893,1.10976 0.32939,1.59684 1.423,4.94773 0.42646,1.30671 0.68207,2.49734 0.56802,2.64584 -0.25264,0.32894 -0.17873,4.96045 0.086,5.38878 0.25989,0.42051 0.268,20.02048 0.008,20.44042 -0.11465,0.18551 -0.24754,1.37983 -0.29532,2.65405 -0.0478,1.27422 -0.20549,2.62878 -0.35048,3.01013 -0.14498,0.38135 -0.26361,1.33343 -0.26361,2.11573 0,0.7823 -0.11906,1.49595 -0.26458,1.58589 -0.14553,0.0899 -0.26459,0.78485 -0.26459,1.54424 0,0.88265 -0.16559,1.61671 -0.45904,2.03491 -0.25247,0.3598 -0.54414,1.30903 -0.64816,2.10939 -0.43344,3.33502 -1.46974,8.09063 -2.13326,9.78959 -0.0853,0.21828 -0.22782,0.93265 -0.31682,1.5875 -0.25158,1.85116 -0.93939,3.79023 -1.52507,4.29948 -0.61137,0.53158 -1.99694,0.59725 -2.61349,0.12387 z"
       id="path7263" />
  </g>
</svg>
